<svg width="24px" height="24px" viewBox="0 0 24 24" stroke-width="1.5" fill="none" xmlns="http://www.w3.org/2000/svg" color="#000000"><path d="M 12,11.016645 C 11.108186,9.2824469 8.6805175,6.0511284 6.4226786,4.4580285 4.2600104,2.931376 3.4354727,3.1955255 2.8948056,3.4408071 2.2688132,3.7221836 2.1547727,4.683622 2.1547727,5.2480158 c 0,0.5660345 0.3101246,4.6349199 0.5119517,5.3149822 0.668655,2.244449 3.0462775,3.002442 5.2368405,2.759622 q 0.1673689,-0.0246 0.3404808,-0.04594 -0.1698301,0.02707 -0.3404808,0.04594 C 4.6940208,13.798418 1.8430071,14.967402 5.5817321,19.128986 9.6945759,23.38655 11.218125,18.215948 12,15.594963 c 0.781875,2.620985 1.681894,7.605369 6.344429,3.534023 3.500799,-3.534023 0.96155,-5.330568 -2.247994,-5.806366 a 7.3839205,7.3830584 0 0 1 -0.340481,-0.04594 q 0.172292,0.02134 0.340481,0.04594 c 2.190564,0.243641 4.568185,-0.515173 5.23684,-2.759622 0.201827,-0.679242 0.511953,-4.7497681 0.511953,-5.3141619 0,-0.5660345 -0.114041,-1.5266525 -0.740034,-1.8096697 C 20.564527,3.1947052 19.739989,2.9305557 17.577321,4.4563877 15.319482,6.0519488 12.891814,9.2832672 12,11.016645" stroke="#000000" stroke-width="1.5" stroke-linecap="round" stroke-linejoin="round"/></svg>
