<?xml version="1.0" encoding="UTF-8"?>
<svg xmlns="http://www.w3.org/2000/svg" xmlns:xlink="http://www.w3.org/1999/xlink" width="24px" height="24px" viewBox="0 0 24 24" version="1.1">
<g id="surface1">
<path style="fill:none;stroke-width:20;stroke-linecap:round;stroke-linejoin:round;stroke:rgb(0%,0%,0%);stroke-opacity:1;stroke-miterlimit:10;" d="M 451.833333 183.916667 C 451.833333 92.75 392.166667 66.083333 392.166667 66.083333 C 333.583333 39.166667 177.916667 39.416667 119.916667 66.083333 C 119.916667 66.083333 60.25 92.75 60.25 183.916667 C 60.25 292.333333 54 427.083333 159.166667 454.916667 C 197.166667 464.916667 229.75 467.083333 256 465.583333 C 303.666667 462.916667 330.333333 448.583333 330.333333 448.583333 L 328.75 414 C 328.75 414 294.75 424.666667 256.5 423.5 C 218.666667 422.166667 178.666667 419.333333 172.5 372.833333 C 171.916667 368.75 171.666667 364.416667 171.666667 359.833333 C 251.916667 379.416667 320.333333 368.333333 339.166667 366.083333 C 391.75 359.833333 437.583333 327.416667 443.416667 297.75 C 452.583333 251.083333 451.833333 183.916667 451.833333 183.916667 Z M 381.416667 300 L 337.75 300 L 337.75 194.166667 C 337.75 147.583333 277.75 145.833333 277.75 200.666667 L 277.75 259.25 L 234.333333 259.25 L 234.333333 200.666667 C 234.333333 145.833333 174.416667 147.583333 174.416667 194.166667 L 174.416667 300 L 130.583333 300 C 130.583333 185.583333 125.75 162.583333 147.833333 137.25 C 172.166667 110.166667 222.666667 108.333333 245.166667 142.916667 L 256 161.25 L 266.916667 142.916667 C 289.5 108.166667 340.083333 110.333333 364.166667 137.25 C 386.416667 162.833333 381.416667 185.666667 381.416667 300 Z M 381.416667 300 " transform="matrix(0.046875,0,0,0.046875,0,0)"/>
</g>
</svg>
