<svg width="24px" height="24px" viewBox="0 0 24 24" stroke-width="1.5" fill="none" xmlns="http://www.w3.org/2000/svg" color="#000000"><path d="m 17.074268,2.1773912 c -0.424015,0 -0.607729,0.2660258 -0.760276,0.5402371 0,0 -6.114196,10.8243857 -6.3167725,11.1788147 0.012303,0.01965 4.0343035,7.385695 4.0343035,7.385695 0.139424,0.252111 0.357584,0.540237 0.793082,0.540237 h 2.832788 c 0.173051,0 0.307555,-0.06385 0.379728,-0.180079 0.073,-0.123604 0.073,-0.283215 -0.0074,-0.438738 l -4.001498,-7.298112 a 0.01640293,0.01637081 0 0 1 0,-0.01801 L 20.314638,2.7962082 c 0.07792,-0.1563413 0.07955,-0.3167754 0.0049,-0.4379194 C 20.24659,2.2412375 20.113722,2.1773912 19.943131,2.1773912 Z M 5.1493304,6.0572754 c -0.1730511,0 -0.3157567,0.060572 -0.3879296,0.1768049 -0.073814,0.1219627 -0.063972,0.2774854 0.016404,0.4346453 l 1.9191441,3.3150909 q 0.00492,0.011453 0,0.01719 L 3.682908,15.315792 a 0.42647646,0.42564131 0 0 0 0,0.433009 c 0.069712,0.116239 0.1960151,0.19154 0.3690661,0.19154 H 6.890503 c 0.4248362,0 0.6282327,-0.284853 0.775039,-0.545969 L 10.72797,9.984635 8.7776609,6.5835972 C 8.6365956,6.3257568 8.4217171,6.0441789 7.9886795,6.0441789 H 5.1493304 Z" stroke="#000000" stroke-width="1.5" stroke-linecap="round" stroke-linejoin="round"/></svg>
