<?xml version="1.0" encoding="UTF-8"?>
<svg xmlns="http://www.w3.org/2000/svg" xmlns:xlink="http://www.w3.org/1999/xlink" width="24px" height="24px" viewBox="0 0 24 24" version="1.1">
<g id="surface1">
<path style=" stroke:none;fill-rule:nonzero;fill:rgb(14.901961%,19.607843%,21.960784%);fill-opacity:1;" d="M 6.453125 16.496094 L 3.292969 16.496094 C 2.988281 16.496094 2.714844 16.347656 2.5625 16.097656 C 2.410156 15.84375 2.402344 15.527344 2.546875 15.25 L 5.03125 10.886719 C 5.132812 10.703125 5.363281 10.640625 5.542969 10.746094 C 5.726562 10.847656 5.785156 11.074219 5.683594 11.257812 L 3.207031 15.609375 C 3.191406 15.640625 3.1875 15.679688 3.207031 15.710938 C 3.226562 15.742188 3.265625 15.746094 3.292969 15.746094 L 6.453125 15.746094 C 6.527344 15.746094 6.742188 15.746094 6.992188 15.324219 L 9.03125 11.734375 C 9.613281 10.710938 9.976562 10.070312 10.144531 9.773438 L 8.09375 6.40625 C 7.882812 6.035156 7.675781 5.996094 7.542969 5.996094 L 4.378906 5.996094 C 4.304688 5.996094 4.265625 6.015625 4.261719 6.023438 C 4.261719 6.027344 4.265625 6.0625 4.296875 6.121094 L 6.410156 9.570312 C 6.476562 9.675781 6.492188 9.8125 6.445312 9.925781 C 6.320312 10.210938 5.839844 10.183594 5.738281 9.910156 L 3.648438 6.5 C 3.480469 6.195312 3.472656 5.886719 3.617188 5.640625 C 3.761719 5.390625 4.046875 5.242188 4.378906 5.242188 L 7.539062 5.242188 C 7.882812 5.242188 8.367188 5.378906 8.738281 6.023438 L 10.898438 9.570312 C 10.96875 9.683594 10.972656 9.828125 10.90625 9.945312 C 10.855469 10.042969 10.464844 10.726562 9.683594 12.105469 L 7.640625 15.703125 C 7.25 16.359375 6.777344 16.496094 6.453125 16.496094 Z M 6.453125 16.496094 "/>
<path style=" stroke:none;fill-rule:nonzero;fill:rgb(14.901961%,19.607843%,21.960784%);fill-opacity:1;" d="M 18.292969 23.25 L 15.128906 23.25 C 14.773438 23.25 14.277344 23.113281 13.925781 22.460938 L 9.441406 14.285156 C 9.34375 14.101562 9.410156 13.875 9.589844 13.773438 C 9.769531 13.675781 10 13.742188 10.101562 13.921875 L 14.585938 22.101562 C 14.773438 22.453125 14.976562 22.5 15.128906 22.5 L 18.292969 22.5 C 18.371094 22.5 18.402344 22.480469 18.40625 22.472656 C 18.40625 22.46875 18.414062 22.433594 18.378906 22.371094 L 13.933594 14.285156 C 13.902344 14.230469 13.886719 14.167969 13.886719 14.105469 C 13.886719 14.039062 13.902344 13.960938 13.933594 13.902344 L 20.921875 1.621094 C 20.945312 1.578125 20.945312 1.539062 20.9375 1.527344 C 20.933594 1.519531 20.898438 1.5 20.839844 1.5 L 17.648438 1.5 C 17.523438 1.5 17.332031 1.542969 17.125 1.902344 L 10.847656 12.964844 C 10.746094 13.144531 10.515625 13.207031 10.339844 13.105469 C 10.15625 13.003906 10.09375 12.773438 10.195312 12.59375 L 16.472656 1.53125 C 16.839844 0.886719 17.316406 0.75 17.648438 0.75 L 20.839844 0.75 C 21.152344 0.75 21.429688 0.894531 21.578125 1.136719 C 21.730469 1.386719 21.730469 1.691406 21.582031 1.980469 L 14.6875 14.101562 L 19.035156 22.011719 C 19.191406 22.292969 19.195312 22.609375 19.050781 22.855469 C 18.902344 23.105469 18.628906 23.25 18.292969 23.25 Z M 18.292969 23.25 "/>
</g>
</svg>
